{
  "accessors": [
    {
      "bufferView": 2,
      "componentType": 5126,
      "count": 65532,
      "max": [
        0.650048017501831,
        0.4997890293598175,
        0.7024968862533569
      ],
      "min": [
        -0.9675476551055908,
        -0.018011361360549927,
        0.016919195652008057
      ],
      "type": "VEC3"
    },
    {
      "bufferView": 2,
      "byteOffset": 786384,
      "componentType": 5126,
      "count": 65532,
      "max": [
        0.9999947547912598,
        1.0,
        0.9999985694885254
      ],
      "min": [
        -1.0,
        -1.0,
        -0.9999996423721313
      ],
      "type": "VEC3"
    },
    {
      "bufferView": 3,
      "componentType": 5126,
      "count": 65532,
      "max": [
        1.0,
        1.0,
        0.9995564222335815,
        1.0
      ],
      "min": [
        -1.0,
        -0.9999294877052307,
        -0.99998539686203,
        1.0
      ],
      "type": "VEC4"
    },
    {
      "bufferView": 1,
      "componentType": 5126,
      "count": 65532,
      "max": [
        0.9886186718940735,
        0.9787285923957825
      ],
      "min": [
        0.0015288591384887695,
        0.001534357201308012
      ],
      "type": "VEC2"
    },
    {
      "bufferView": 1,
      "byteOffset": 524256,
      "componentType": 5126,
      "count": 65532,
      "max": [
        0.9886186718940735,
        0.9787285923957825
      ],
      "min": [
        0.0015288591384887695,
        0.001534357201308012
      ],
      "type": "VEC2"
    },
    {
      "bufferView": 1,
      "byteOffset": 1048512,
      "componentType": 5126,
      "count": 65532,
      "max": [
        0.9886186718940735,
        0.9787285923957825
      ],
      "min": [
        0.0015288591384887695,
        0.001534357201308012
      ],
      "type": "VEC2"
    },
    {
      "bufferView": 0,
      "componentType": 5125,
      "count": 374154,
      "type": "SCALAR"
    },
    {
      "bufferView": 2,
      "byteOffset": 1572768,
      "componentType": 5126,
      "count": 65532,
      "max": [
        0.9498188495635986,
        0.49990278482437134,
        0.7024949193000793
      ],
      "min": [
        -0.9669027328491211,
        0.26883718371391296,
        0.018167993053793907
      ],
      "type": "VEC3"
    },
    {
      "bufferView": 2,
      "byteOffset": 2359152,
      "componentType": 5126,
      "count": 65532,
      "max": [
        1.0,
        1.0,
        0.9999867677688599
      ],
      "min": [
        -0.9981831908226013,
        -1.0,
        -0.999998927116394
      ],
      "type": "VEC3"
    },
    {
      "bufferView": 3,
      "byteOffset": 1048512,
      "componentType": 5126,
      "count": 65532,
      "max": [
        1.0,
        0.9999995827674866,
        0.7514114379882813,
        1.0
      ],
      "min": [
        -0.9999998807907104,
        -0.9998778700828552,
        -1.0,
        1.0
      ],
      "type": "VEC4"
    },
    {
      "bufferView": 1,
      "byteOffset": 1572768,
      "componentType": 5126,
      "count": 65532,
      "max": [
        0.9321127533912659,
        0.7024025917053223
      ],
      "min": [
        0.22240304946899414,
        0.002553982427343726
      ],
      "type": "VEC2"
    },
    {
      "bufferView": 1,
      "byteOffset": 2097024,
      "componentType": 5126,
      "count": 65532,
      "max": [
        0.9321127533912659,
        0.7024025917053223
      ],
      "min": [
        0.22240304946899414,
        0.002553982427343726
      ],
      "type": "VEC2"
    },
    {
      "bufferView": 1,
      "byteOffset": 2621280,
      "componentType": 5126,
      "count": 65532,
      "max": [
        0.9321127533912659,
        0.7024025917053223
      ],
      "min": [
        0.22240304946899414,
        0.002553982427343726
      ],
      "type": "VEC2"
    },
    {
      "bufferView": 0,
      "byteOffset": 1496616,
      "componentType": 5125,
      "count": 376605,
      "type": "SCALAR"
    },
    {
      "bufferView": 2,
      "byteOffset": 3145536,
      "componentType": 5126,
      "count": 65532,
      "max": [
        0.9263471961021423,
        0.4993654787540436,
        0.7025504112243652
      ],
      "min": [
        -0.005287595093250275,
        0.23719100654125214,
        0.018035994842648506
      ],
      "type": "VEC3"
    },
    {
      "bufferView": 2,
      "byteOffset": 3931920,
      "componentType": 5126,
      "count": 65532,
      "max": [
        0.9999715089797974,
        0.9999999403953552,
        0.9999995231628418
      ],
      "min": [
        -1.0,
        -1.0,
        -0.9999993443489075
      ],
      "type": "VEC3"
    },
    {
      "bufferView": 3,
      "byteOffset": 2097024,
      "componentType": 5126,
      "count": 65532,
      "max": [
        0.8993334770202637,
        0.9981669783592224,
        0.9999998807907104,
        1.0
      ],
      "min": [
        -0.9708993434906006,
        -0.9998041391372681,
        -0.9999990463256836,
        1.0
      ],
      "type": "VEC4"
    },
    {
      "bufferView": 1,
      "byteOffset": 3145536,
      "componentType": 5126,
      "count": 65532,
      "max": [
        0.998475193977356,
        0.9962515234947205
      ],
      "min": [
        0.42124176025390625,
        0.0021872168872505426
      ],
      "type": "VEC2"
    },
    {
      "bufferView": 1,
      "byteOffset": 3669792,
      "componentType": 5126,
      "count": 65532,
      "max": [
        0.998475193977356,
        0.9962515234947205
      ],
      "min": [
        0.42124176025390625,
        0.0021872168872505426
      ],
      "type": "VEC2"
    },
    {
      "bufferView": 1,
      "byteOffset": 4194048,
      "componentType": 5126,
      "count": 65532,
      "max": [
        0.998475193977356,
        0.9962515234947205
      ],
      "min": [
        0.42124176025390625,
        0.0021872168872505426
      ],
      "type": "VEC2"
    },
    {
      "bufferView": 0,
      "byteOffset": 3003036,
      "componentType": 5125,
      "count": 386241,
      "type": "SCALAR"
    },
    {
      "bufferView": 2,
      "byteOffset": 4718304,
      "componentType": 5126,
      "count": 65532,
      "max": [
        0.9965390563011169,
        0.4998166859149933,
        0.6814264059066772
      ],
      "min": [
        -0.996152400970459,
        -0.4941456913948059,
        0.005070440471172333
      ],
      "type": "VEC3"
    },
    {
      "bufferView": 2,
      "byteOffset": 5504688,
      "componentType": 5126,
      "count": 65532,
      "max": [
        1.0,
        1.0,
        0.9999958872795105
      ],
      "min": [
        -1.0,
        -0.999999463558197,
        -1.0
      ],
      "type": "VEC3"
    },
    {
      "bufferView": 3,
      "byteOffset": 3145536,
      "componentType": 5126,
      "count": 65532,
      "max": [
        0.9999995827674866,
        1.0,
        1.0,
        1.0
      ],
      "min": [
        -0.9999819397926331,
        -1.0,
        -1.0,
        1.0
      ],
      "type": "VEC4"
    },
    {
      "bufferView": 1,
      "byteOffset": 4718304,
      "componentType": 5126,
      "count": 65532,
      "max": [
        0.995652437210083,
        0.930492103099823
      ],
      "min": [
        0.0015286096604540944,
        0.0015351050533354282
      ],
      "type": "VEC2"
    },
    {
      "bufferView": 1,
      "byteOffset": 5242560,
      "componentType": 5126,
      "count": 65532,
      "max": [
        0.995652437210083,
        0.930492103099823
      ],
      "min": [
        0.0015286096604540944,
        0.0015351050533354282
      ],
      "type": "VEC2"
    },
    {
      "bufferView": 1,
      "byteOffset": 5766816,
      "componentType": 5126,
      "count": 65532,
      "max": [
        0.995652437210083,
        0.930492103099823
      ],
      "min": [
        0.0015286096604540944,
        0.0015351050533354282
      ],
      "type": "VEC2"
    },
    {
      "bufferView": 0,
      "byteOffset": 4548000,
      "componentType": 5125,
      "count": 373617,
      "type": "SCALAR"
    },
    {
      "bufferView": 2,
      "byteOffset": 6291072,
      "componentType": 5126,
      "count": 55400,
      "max": [
        0.9962833523750305,
        0.49985766410827637,
        0.7000051736831665
      ],
      "min": [
        -0.996152400970459,
        -0.49453556537628174,
        0.003239920362830162
      ],
      "type": "VEC3"
    },
    {
      "bufferView": 2,
      "byteOffset": 6955872,
      "componentType": 5126,
      "count": 55400,
      "max": [
        1.0,
        1.0,
        1.0
      ],
      "min": [
        -1.0,
        -1.0,
        -1.0
      ],
      "type": "VEC3"
    },
    {
      "bufferView": 3,
      "byteOffset": 4194048,
      "componentType": 5126,
      "count": 55400,
      "max": [
        1.0,
        1.0,
        0.9999991655349731,
        1.0
      ],
      "min": [
        -0.9999926686286926,
        -1.0,
        -1.0,
        -1.0
      ],
      "type": "VEC4"
    },
    {
      "bufferView": 1,
      "byteOffset": 6291072,
      "componentType": 5126,
      "count": 55400,
      "max": [
        0.9862979054450989,
        0.9962515234947205
      ],
      "min": [
        0.0015277998754754663,
        0.001527249813079834
      ],
      "type": "VEC2"
    },
    {
      "bufferView": 1,
      "byteOffset": 6734272,
      "componentType": 5126,
      "count": 55400,
      "max": [
        0.9862979054450989,
        0.9962515234947205
      ],
      "min": [
        0.0015277998754754663,
        0.001527249813079834
      ],
      "type": "VEC2"
    },
    {
      "bufferView": 1,
      "byteOffset": 7177472,
      "componentType": 5126,
      "count": 55400,
      "max": [
        0.9862979054450989,
        0.9962515234947205
      ],
      "min": [
        0.0015277998754754663,
        0.001527249813079834
      ],
      "type": "VEC2"
    },
    {
      "bufferView": 0,
      "byteOffset": 6042468,
      "componentType": 5125,
      "count": 307527,
      "type": "SCALAR"
    }
  ],
  "asset": {
    "extras": {
      "author": "dengxiart (https://sketchfab.com/dengxiart)",
      "license": "SKETCHFAB Standard (https://sketchfab.com/licenses)",
      "source": "https://sketchfab.com/3d-models/leather-sofa-3d-model-3987cf14c8534382864403b568321a30",
      "title": "Leather Sofa 3D Model"
    },
    "generator": "Sketchfab-16.53.0",
    "version": "2.0"
  },
  "bufferViews": [
    {
      "buffer": 0,
      "byteLength": 7272576,
      "name": "floatBufferViews",
      "target": 34963
    },
    {
      "buffer": 0,
      "byteLength": 7620672,
      "byteOffset": 7272576,
      "byteStride": 8,
      "name": "floatBufferViews",
      "target": 34962
    },
    {
      "buffer": 0,
      "byteLength": 7620672,
      "byteOffset": 14893248,
      "byteStride": 12,
      "name": "floatBufferViews",
      "target": 34962
    },
    {
      "buffer": 0,
      "byteLength": 5080448,
      "byteOffset": 22513920,
      "byteStride": 16,
      "name": "floatBufferViews",
      "target": 34962
    }
  ],
  "buffers": [
    {
      "byteLength": 27594368,
      "uri": "scene.bin"
    }
  ],
  "images": [
    {
      "uri": "textures/leather_baseColor.png"
    },
    {
      "uri": "textures/leather_metallicRoughness.png"
    },
    {
      "uri": "textures/leather_normal.png"
    }
  ],
  "materials": [
    {
      "doubleSided": true,
      "name": "leather",
      "normalTexture": {
        "index": 2
      },
      "occlusionTexture": {
        "index": 1
      },
      "pbrMetallicRoughness": {
        "baseColorTexture": {
          "index": 0
        },
        "metallicRoughnessTexture": {
          "index": 1
        }
      }
    }
  ],
  "meshes": [
    {
      "name": "leather-sofa_leather_0",
      "primitives": [
        {
          "attributes": {
            "NORMAL": 1,
            "POSITION": 0,
            "TANGENT": 2,
            "TEXCOORD_0": 3,
            "TEXCOORD_1": 4,
            "TEXCOORD_2": 5
          },
          "indices": 6,
          "material": 0,
          "mode": 4
        }
      ]
    },
    {
      "name": "leather-sofa_leather_0",
      "primitives": [
        {
          "attributes": {
            "NORMAL": 8,
            "POSITION": 7,
            "TANGENT": 9,
            "TEXCOORD_0": 10,
            "TEXCOORD_1": 11,
            "TEXCOORD_2": 12
          },
          "indices": 13,
          "material": 0,
          "mode": 4
        }
      ]
    },
    {
      "name": "leather-sofa_leather_0",
      "primitives": [
        {
          "attributes": {
            "NORMAL": 15,
            "POSITION": 14,
            "TANGENT": 16,
            "TEXCOORD_0": 17,
            "TEXCOORD_1": 18,
            "TEXCOORD_2": 19
          },
          "indices": 20,
          "material": 0,
          "mode": 4
        }
      ]
    },
    {
      "name": "leather-sofa_leather_0",
      "primitives": [
        {
          "attributes": {
            "NORMAL": 22,
            "POSITION": 21,
            "TANGENT": 23,
            "TEXCOORD_0": 24,
            "TEXCOORD_1": 25,
            "TEXCOORD_2": 26
          },
          "indices": 27,
          "material": 0,
          "mode": 4
        }
      ]
    },
    {
      "name": "leather-sofa_leather_0",
      "primitives": [
        {
          "attributes": {
            "NORMAL": 29,
            "POSITION": 28,
            "TANGENT": 30,
            "TEXCOORD_0": 31,
            "TEXCOORD_1": 32,
            "TEXCOORD_2": 33
          },
          "indices": 34,
          "material": 0,
          "mode": 4
        }
      ]
    }
  ],
  "nodes": [
    {
      "children": [
        1
      ],
      "matrix": [
        1.0,
        0.0,
        0.0,
        0.0,
        0.0,
        2.220446049250313e-16,
        -1.0,
        0.0,
        0.0,
        1.0,
        2.220446049250313e-16,
        0.0,
        0.0,
        0.0,
        0.0,
        1.0
      ],
      "name": "Sketchfab_model"
    },
    {
      "children": [
        2
      ],
      "matrix": [
        0.009999999776482582,
        0.0,
        0.0,
        0.0,
        0.0,
        0.0,
        0.009999999776482582,
        0.0,
        0.0,
        -0.009999999776482582,
        0.0,
        0.0,
        0.0,
        0.0,
        0.0,
        1.0
      ],
      "name": "leather-sofa-fbx.fbx"
    },
    {
      "children": [
        3
      ],
      "name": "RootNode"
    },
    {
      "children": [
        4,
        5,
        6,
        7,
        8
      ],
      "matrix": [
        100.0,
        0.0,
        0.0,
        0.0,
        0.0,
        -1.629206793918314e-05,
        -99.99999999999868,
        0.0,
        0.0,
        99.99999999999868,
        -1.629206793918314e-05,
        0.0,
        0.0,
        0.0,
        0.0,
        1.0
      ],
      "name": "leather-sofa"
    },
    {
      "mesh": 0,
      "name": "leather-sofa_leather_0"
    },
    {
      "mesh": 1,
      "name": "leather-sofa_leather_0"
    },
    {
      "mesh": 2,
      "name": "leather-sofa_leather_0"
    },
    {
      "mesh": 3,
      "name": "leather-sofa_leather_0"
    },
    {
      "mesh": 4,
      "name": "leather-sofa_leather_0"
    }
  ],
  "samplers": [
    {
      "magFilter": 9729,
      "minFilter": 9987,
      "wrapS": 10497,
      "wrapT": 10497
    }
  ],
  "scene": 0,
  "scenes": [
    {
      "name": "Sketchfab_Scene",
      "nodes": [
        0
      ]
    }
  ],
  "textures": [
    {
      "sampler": 0,
      "source": 0
    },
    {
      "sampler": 0,
      "source": 1
    },
    {
      "sampler": 0,
      "source": 2
    }
  ]
}
