{
  "accessors": [
    {
      "bufferView": 2,
      "componentType": 5126,
      "count": 20693,
      "max": [
        1.2182270288467407,
        0.17250600457191467,
        2.3052189350128174
      ],
      "min": [
        -1.2182270288467407,
        -0.24658699333667755,
        0.0004799999878741801
      ],
      "type": "VEC3"
    },
    {
      "bufferView": 2,
      "byteOffset": 248316,
      "componentType": 5126,
      "count": 20693,
      "max": [
        0.999845564365387,
        1.0,
        0.999971866607666
      ],
      "min": [
        -0.999845564365387,
        -1.0,
        -0.9999687671661377
      ],
      "type": "VEC3"
    },
    {
      "bufferView": 3,
      "componentType": 5126,
      "count": 20693,
      "max": [
        1.0,
        0.999829113483429,
        0.9999688863754272,
        1.0
      ],
      "min": [
        -1.0,
        -0.999810516834259,
        -0.9999233484268188,
        -1.0
      ],
      "type": "VEC4"
    },
    {
      "bufferView": 1,
      "componentType": 5126,
      "count": 20693,
      "max": [
        0.9892579913139343,
        0.9900050163269043
      ],
      "min": [
        0.006606999784708023,
        0.004395000170916319
      ],
      "type": "VEC2"
    },
    {
      "bufferView": 0,
      "componentType": 5125,
      "count": 110238,
      "type": "SCALAR"
    }
  ],
  "asset": {
    "extras": {
      "author": "SMF Friends Fan 2024 YouTube Live (https://sketchfab.com/cherylhill28)",
      "license": "CC-BY-4.0 (http://creativecommons.org/licenses/by/4.0/)",
      "source": "https://sketchfab.com/3d-models/nickelodeon-kart-racers-3-aang-1e6dc80e72f74437a5604e3fb6ff3b54",
      "title": "Nickelodeon Kart Racers 3 Aang"
    },
    "generator": "Sketchfab-16.32.0",
    "version": "2.0"
  },
  "bufferViews": [
    {
      "buffer": 0,
      "byteLength": 440952,
      "name": "floatBufferViews",
      "target": 34963
    },
    {
      "buffer": 0,
      "byteLength": 165544,
      "byteOffset": 440952,
      "byteStride": 8,
      "name": "floatBufferViews",
      "target": 34962
    },
    {
      "buffer": 0,
      "byteLength": 496632,
      "byteOffset": 606496,
      "byteStride": 12,
      "name": "floatBufferViews",
      "target": 34962
    },
    {
      "buffer": 0,
      "byteLength": 331088,
      "byteOffset": 1103128,
      "byteStride": 16,
      "name": "floatBufferViews",
      "target": 34962
    }
  ],
  "buffers": [
    {
      "byteLength": 1434216,
      "uri": "scene.bin"
    }
  ],
  "images": [
    {
      "uri": "textures/MI_Aang_baseColor.png"
    },
    {
      "uri": "textures/MI_Aang_metallicRoughness.png"
    },
    {
      "uri": "textures/MI_Aang_emissive.png"
    },
    {
      "uri": "textures/MI_Aang_normal.png"
    }
  ],
  "materials": [
    {
      "doubleSided": true,
      "emissiveTexture": {
        "index": 2
      },
      "name": "MI_Aang",
      "normalTexture": {
        "index": 3
      },
      "pbrMetallicRoughness": {
        "baseColorTexture": {
          "index": 0
        },
        "metallicRoughnessTexture": {
          "index": 1
        }
      }
    }
  ],
  "meshes": [
    {
      "name": "Object_0",
      "primitives": [
        {
          "attributes": {
            "NORMAL": 1,
            "POSITION": 0,
            "TANGENT": 2,
            "TEXCOORD_0": 3
          },
          "indices": 4,
          "material": 0,
          "mode": 4
        }
      ]
    }
  ],
  "nodes": [
    {
      "children": [
        1
      ],
      "matrix": [
        1.0,
        0.0,
        0.0,
        0.0,
        0.0,
        2.220446049250313e-16,
        -1.0,
        0.0,
        0.0,
        1.0,
        2.220446049250313e-16,
        0.0,
        0.0,
        0.0,
        0.0,
        1.0
      ],
      "name": "Sketchfab_model"
    },
    {
      "children": [
        2
      ],
      "name": "Aang.obj.cleaner.materialmerger.gles"
    },
    {
      "mesh": 0,
      "name": "Object_2"
    }
  ],
  "samplers": [
    {
      "magFilter": 9729,
      "minFilter": 9987,
      "wrapS": 10497,
      "wrapT": 10497
    }
  ],
  "scene": 0,
  "scenes": [
    {
      "name": "Sketchfab_Scene",
      "nodes": [
        0
      ]
    }
  ],
  "textures": [
    {
      "sampler": 0,
      "source": 0
    },
    {
      "sampler": 0,
      "source": 1
    },
    {
      "sampler": 0,
      "source": 2
    },
    {
      "sampler": 0,
      "source": 3
    }
  ]
}
